<?xml version="1.0"?>
<svg xmlns="http://www.w3.org/2000/svg" xmlns:xlink="http://www.w3.org/1999/xlink" xmlns:svgjs="http://svgjs.com/svgjs" version="1.1" width="512" height="512" x="0" y="0" viewBox="0 0 512 512" style="enable-background:new 0 0 512 512" xml:space="preserve" class=""><g><path xmlns="http://www.w3.org/2000/svg" d="M416,96q-.685,0-1.368-.04a24.132,24.132,0,0,1-2.75,5.457,27.856,27.856,0,0,1,2.659,23.473,23.85,23.85,0,0,1,8.147,11.238,27.878,27.878,0,0,1,15.681,6.765c7.961-.906,11.933-4.509,11.974-4.55A8,8,0,0,1,456,136h16c1.123,0,4.1-3.317,6.155-13.569a102.6,102.6,0,0,0,1.686-13.879L436.8,83.955A24.009,24.009,0,0,1,416,96Zm32,16a8,8,0,1,1-8-8A8,8,0,0,1,448,112Z" fill="#76323f" data-original="#000000" style="" class=""/><path xmlns="http://www.w3.org/2000/svg" d="M427.162,173.6A11.98,11.98,0,0,0,420,152a12.579,12.579,0,0,0-2.452.245,8,8,0,0,1-9.568-7.845c0-.192.007-.383.018-.576a7.967,7.967,0,0,0-6.177-7.606,8,8,0,0,1-4.425-12.777,11.945,11.945,0,0,0-1.46-16.421,8,8,0,0,1,.679-12.5A7.914,7.914,0,0,0,400,88a7.8,7.8,0,0,0-.1-1.116,8,8,0,0,1,12.011-8.027A7.88,7.88,0,0,0,416,80a8,8,0,0,0,0-16h-8a8,8,0,0,1-8-8V40L380.8,54.4q-.227.169-.464.323C374,58.84,368,65.3,368,68a11.841,11.841,0,0,0,2.416,7.181A8,8,0,0,1,364.03,88,11.968,11.968,0,0,0,352.8,104.268a8,8,0,0,1-3.2,9.6,11.952,11.952,0,0,0-.763,19.729,8,8,0,0,1,0,12.8,11.94,11.94,0,0,0,0,19.2,8,8,0,0,1,0,12.8,11.916,11.916,0,0,0-2.422,16.779A8,8,0,0,1,340.03,208,12.02,12.02,0,0,0,328,220a8.011,8.011,0,0,1-12.818,6.416,11.918,11.918,0,0,0-16.781,2.422,8,8,0,0,1-12.8,0,11.925,11.925,0,0,0-17.541-1.8,8,8,0,0,1-12.817-3.192,11.95,11.95,0,0,0-19.183-4.808,8,8,0,0,1-12.817-3.192,11.95,11.95,0,0,0-19.183-4.808,8,8,0,0,1-12.817-3.192A12.057,12.057,0,0,0,180,200a11.909,11.909,0,0,0-9.6,4.838,8,8,0,0,1-12.8,0A11.909,11.909,0,0,0,148,200a12.057,12.057,0,0,0-11.241,7.845,8,8,0,0,1-12.817,3.192,11.95,11.95,0,0,0-19.183,4.808,8,8,0,0,1-12.817,3.192,11.955,11.955,0,0,0-19.735,6.84,8,8,0,0,1-9.607,6.414A11.863,11.863,0,0,0,60,232a12.013,12.013,0,0,0-12,12,11.835,11.835,0,0,0,2.416,7.181A8,8,0,0,1,44.03,264a11.98,11.98,0,0,0-7.192,21.6,8,8,0,0,1,0,12.8A11.98,11.98,0,0,0,44,320a8.011,8.011,0,0,1,6.416,12.819A11.932,11.932,0,0,0,53.6,350.131a8,8,0,0,1,3.2,9.6,11.94,11.94,0,0,0,7.047,15.508,8,8,0,0,1,3.193,12.817,11.924,11.924,0,0,0,1.8,17.541,8,8,0,0,1,0,12.8,11.986,11.986,0,1,0,15.125,18.57,8,8,0,0,1,10.224-.341,15.993,15.993,0,0,0,21.041-24.02,8,8,0,0,1,8.011-13.333A15.858,15.858,0,0,0,128,400a16.059,16.059,0,0,0,15.953-14.788,8,8,0,0,1,13.348-5.331,15.976,15.976,0,0,0,24.036-3.049,8,8,0,0,1,13.326,0,15.992,15.992,0,0,0,26.674,0,8,8,0,0,1,13.326,0,15.992,15.992,0,0,0,26.674,0,8,8,0,0,1,13.326,0,16,16,0,0,0,24.061,3.045,8,8,0,0,1,13.335,5.36,15.644,15.644,0,0,0,2.085,6.755,8,8,0,0,1,0,8.011,16,16,0,1,0,27.708,0,8,8,0,0,1,0-8.006,16.009,16.009,0,0,0,1.028-13.884,8,8,0,0,1,9.7-10.617A12.149,12.149,0,0,0,356,368a11.987,11.987,0,0,0,11.784-9.806,8,8,0,0,1,6.411-6.411A11.984,11.984,0,0,0,384,340a11.838,11.838,0,0,0-.291-2.6,8,8,0,0,1,6.413-9.609A11.958,11.958,0,0,0,400,316a11.838,11.838,0,0,0-.291-2.6,8,8,0,0,1,6.413-9.609,11.957,11.957,0,0,0,6.841-19.737,8,8,0,0,1,3.192-12.816,11.951,11.951,0,0,0,4.808-19.184,8,8,0,0,1,3.192-12.816A12.053,12.053,0,0,0,432,228a11.912,11.912,0,0,0-4.838-9.6,8,8,0,0,1,0-12.8,11.94,11.94,0,0,0,0-19.2,8,8,0,0,1,0-12.8Z" fill="#76323f" data-original="#000000" style="" class=""/><path xmlns="http://www.w3.org/2000/svg" d="M96,456v-1.015a31.42,31.42,0,0,1-6.5-2.453,27.916,27.916,0,0,1-9.333,3.144l4.566,18.263A7.988,7.988,0,0,0,92.49,480H120v-3.719L99.562,462.656A8,8,0,0,1,96,456Z" fill="#76323f" data-original="#000000" style="" class=""/><path xmlns="http://www.w3.org/2000/svg" d="M336,456V438.987a32.1,32.1,0,0,1-16,0v16.028l4.73,18.924A7.989,7.989,0,0,0,332.49,480H360v-3.719l-20.438-13.625A8,8,0,0,1,336,456Z" fill="#76323f" data-original="#000000" style="" class=""/><path xmlns="http://www.w3.org/2000/svg" d="M89.933,200.646a27.94,27.94,0,0,1,4.464,1.369,32,32,0,0,0-59-24.349,48.093,48.093,0,0,1,54.539,22.98Z" fill="#76323f" data-original="#000000" style="" class=""/></g></svg>
